<svg id="stock" xmlns="http://www.w3.org/2000/svg" width="512" height="400" viewBox="0 0 512 400">
  <path id="Path_1" data-name="Path 1" d="M497,70H437a15,15,0,0,0-15,15V385a15,15,0,0,0,15,15h60a15,15,0,0,0,15-15V85A15,15,0,0,0,497,70Zm0,0" fill="#fff"/>
  <path id="Path_2" data-name="Path 2" d="M215.668,151h-15V106a15,15,0,0,0-30,0v45h-15a15,15,0,0,0-15,15V366a15,15,0,0,0,15,15h60a15,15,0,0,0,15-15V166A15,15,0,0,0,215.668,151Zm0,0" fill="#fff"/>
  <path id="Path_3" data-name="Path 3" d="M356.332,60h-15V15a15,15,0,0,0-30,0V60h-15a15,15,0,0,0-15,15v60a15,15,0,0,0,15,15h15v45a15,15,0,0,0,30,0V150h15a15,15,0,0,0,15-15V75A15,15,0,0,0,356.332,60Zm0,0" fill="#fff"/>
  <path id="Path_4" data-name="Path 4" d="M75,20H15A15,15,0,0,0,0,35V235a15,15,0,0,0,15,15H30V355a15,15,0,0,0,30,0V250H75a15,15,0,0,0,15-15V35A15,15,0,0,0,75,20Zm0,0" fill="#fff"/>
</svg>
