<?xml version="1.0" encoding="utf-8"?>
<svg id="master-artboard" viewBox="0 0 1400 980" version="1.1" xmlns="http://www.w3.org/2000/svg" x="0px" y="0px" style="enable-background:new 0 0 1400 980;" width="1400px" height="980px">

<g transform="matrix(1, 0, 0, 1, 0, 0)">
		<g>
			
		</g>
	</g><g transform="matrix(1, 0, 0, 1, 0, 0)">
			<path class="st1" d="M789.8,769.1c3.8,0,7-2.9,7.5-6.7l1.9-15.9c0.5-4.1-2.5-7.9-6.6-8.4l-72.6-8.7v-73.1h281.3V637h-35V315.6&#10;&#9;&#9;&#9;&#9;c5.7-1.7,10.2-5.9,12.4-11.4h22.6v-19.4h-22.6c-3-7.4-10.2-12.4-18.2-12.4H426c-8,0-15.2,4.9-18.2,12.4h-22.6v19.4h22.6&#10;&#9;&#9;&#9;&#9;c2.2,5.5,6.8,9.7,12.4,11.4V637h-35v19.4h281.3v73.1l-72.6,8.7c-4.1,0.5-7.1,4.3-6.6,8.4l1.9,15.9c0.5,4.1,4.2,7.1,8.4,6.6&#10;&#9;&#9;&#9;&#9;l95.6-11.5l95.7,11.5C789.2,769.1,789.5,769.1,789.8,769.1z M999,287.1v14.8h-19.5c0,0,0,0,0-0.1c0.2-0.7,0.3-1.5,0.5-2.2&#10;&#9;&#9;&#9;&#9;c0-0.2,0-0.4,0.1-0.5c0.1-0.8,0.2-1.5,0.2-2.3v-4.6c0-0.8-0.1-1.5-0.2-2.3c0-0.2,0-0.4-0.1-0.5c-0.1-0.8-0.3-1.5-0.5-2.2&#10;&#9;&#9;&#9;&#9;c0,0,0,0,0,0H999z M387.4,301.9v-14.8h19.5c0,0,0,0,0,0c-0.2,0.7-0.3,1.5-0.5,2.2c0,0.2,0,0.4-0.1,0.5c-0.1,0.8-0.2,1.5-0.2,2.3&#10;&#9;&#9;&#9;&#9;v4.6c0,0.8,0.1,1.5,0.2,2.3c0,0.2,0,0.4,0.1,0.5c0.1,0.8,0.3,1.5,0.5,2.2c0,0,0,0,0,0H387.4z M409.5,302.7c-0.7-1.9-1-3.9-1-5.9&#10;&#9;&#9;&#9;&#9;v-4.6c0-2,0.3-3.9,1-5.9c2.5-6.9,9.1-11.6,16.4-11.6h534.5c7.4,0,14,4.7,16.4,11.6c0.7,1.9,1,3.9,1,5.9v4.6c0,0.5,0,1-0.1,1.5&#10;&#9;&#9;&#9;&#9;c-0.1,1.5-0.5,2.9-1,4.4c-1.9,5.4-6.4,9.6-12,11c-1.5,0.4-3,0.6-4.4,0.6H426c-1.4,0-2.9-0.2-4.4-0.6l0,0&#10;&#9;&#9;&#9;&#9;C416,312.2,411.5,308.1,409.5,302.7z M422.4,316.2c0.2,0,0.5,0.1,0.7,0.1c0.2,0,0.4,0.1,0.6,0.1c0.7,0.1,1.5,0.1,2.2,0.1h534.5&#10;&#9;&#9;&#9;&#9;c0.7,0,1.5-0.1,2.2-0.1c0.2,0,0.4-0.1,0.6-0.1c0.2,0,0.5-0.1,0.7-0.1V637H422.4V316.2z M387.4,654.1v-14.8h32.8h546.1H999v14.8&#10;&#9;&#9;&#9;&#9;H720h-53.6H387.4z M693,755.3l-95.8,11.5c-2.9,0.3-5.5-1.8-5.9-4.6l-1.9-15.9c-0.3-2.9,1.7-5.5,4.6-5.9l74.6-9v-75.1h49.1v75.1&#10;&#9;&#9;&#9;&#9;l74.6,9c2.9,0.3,5,3,4.6,5.9l-1.9,15.9c-0.3,2.9-3,4.9-5.9,4.6l-95.7-11.5L693,755.3z" style="fill: rgb(255, 255, 255);"/>
		</g><path class="st1" d="M884.4,597.1H512.2V343.4c0-0.6-0.5-1.1-1.1-1.1c-0.6,0-1.1,0.5-1.1,1.1v11.9h-10.8c-0.6,0-1.1,0.5-1.1,1.1&#10;&#9;&#9;&#9;&#9;c0,0.6,0.5,1.1,1.1,1.1h10.8v15h-10.8c-0.6,0-1.1,0.5-1.1,1.1c0,0.6,0.5,1.1,1.1,1.1h10.8v15h-10.8c-0.6,0-1.1,0.5-1.1,1.1&#10;&#9;&#9;&#9;&#9;c0,0.6,0.5,1.1,1.1,1.1h10.8v15h-10.8c-0.6,0-1.1,0.5-1.1,1.1c0,0.6,0.5,1.1,1.1,1.1h10.8v15h-10.8c-0.6,0-1.1,0.5-1.1,1.1&#10;&#9;&#9;&#9;&#9;c0,0.6,0.5,1.1,1.1,1.1h10.8v15h-10.8c-0.6,0-1.1,0.5-1.1,1.1c0,0.6,0.5,1.1,1.1,1.1h10.8v15h-10.8c-0.6,0-1.1,0.5-1.1,1.1&#10;&#9;&#9;&#9;&#9;c0,0.6,0.5,1.1,1.1,1.1h10.8v15h-10.8c-0.6,0-1.1,0.5-1.1,1.1c0,0.6,0.5,1.1,1.1,1.1h10.8v15h-10.8c-0.6,0-1.1,0.5-1.1,1.1&#10;&#9;&#9;&#9;&#9;c0,0.6,0.5,1.1,1.1,1.1h10.8v15h-10.8c-0.6,0-1.1,0.5-1.1,1.1c0,0.6,0.5,1.1,1.1,1.1h10.8v15h-10.8c-0.6,0-1.1,0.5-1.1,1.1&#10;&#9;&#9;&#9;&#9;c0,0.6,0.5,1.1,1.1,1.1h10.8v15h-10.8c-0.6,0-1.1,0.5-1.1,1.1c0,0.6,0.5,1.1,1.1,1.1h10.8v15h-10.8c-0.6,0-1.1,0.5-1.1,1.1&#10;&#9;&#9;&#9;&#9;c0,0.6,0.5,1.1,1.1,1.1h10.8v15h-10.8c-0.6,0-1.1,0.5-1.1,1.1c0,0.6,0.5,1.1,1.1,1.1h10.8v15h-10.8c-0.6,0-1.1,0.5-1.1,1.1&#10;&#9;&#9;&#9;&#9;c0,0.6,0.5,1.1,1.1,1.1h10.8v10.8c0,0.6,0.5,1.1,1.1,1.1c0.6,0,1.1-0.5,1.1-1.1v-10.8h15v10.8c0,0.6,0.5,1.1,1.1,1.1&#10;&#9;&#9;&#9;&#9;c0.6,0,1.1-0.5,1.1-1.1v-10.8h15v10.8c0,0.6,0.5,1.1,1.1,1.1c0.6,0,1.1-0.5,1.1-1.1v-10.8h15v10.8c0,0.6,0.5,1.1,1.1,1.1&#10;&#9;&#9;&#9;&#9;c0.6,0,1.1-0.5,1.1-1.1v-10.8h15v10.8c0,0.6,0.5,1.1,1.1,1.1c0.6,0,1.1-0.5,1.1-1.1v-10.8h15v10.8c0,0.6,0.5,1.1,1.1,1.1&#10;&#9;&#9;&#9;&#9;c0.6,0,1.1-0.5,1.1-1.1v-10.8h15v10.8c0,0.6,0.5,1.1,1.1,1.1c0.6,0,1.1-0.5,1.1-1.1v-10.8h15v10.8c0,0.6,0.5,1.1,1.1,1.1&#10;&#9;&#9;&#9;&#9;c0.6,0,1.1-0.5,1.1-1.1v-10.8h15v10.8c0,0.6,0.5,1.1,1.1,1.1c0.6,0,1.1-0.5,1.1-1.1v-10.8h15v10.8c0,0.6,0.5,1.1,1.1,1.1&#10;&#9;&#9;&#9;&#9;c0.6,0,1.1-0.5,1.1-1.1v-10.8h15v10.8c0,0.6,0.5,1.1,1.1,1.1c0.6,0,1.1-0.5,1.1-1.1v-10.8h15v10.8c0,0.6,0.5,1.1,1.1,1.1&#10;&#9;&#9;&#9;&#9;c0.6,0,1.1-0.5,1.1-1.1v-10.8h15v10.8c0,0.6,0.5,1.1,1.1,1.1c0.6,0,1.1-0.5,1.1-1.1v-10.8h15v10.8c0,0.6,0.5,1.1,1.1,1.1&#10;&#9;&#9;&#9;&#9;c0.6,0,1.1-0.5,1.1-1.1v-10.8h15v10.8c0,0.6,0.5,1.1,1.1,1.1c0.6,0,1.1-0.5,1.1-1.1v-10.8h15v10.8c0,0.6,0.5,1.1,1.1,1.1&#10;&#9;&#9;&#9;&#9;c0.6,0,1.1-0.5,1.1-1.1v-10.8h15v10.8c0,0.6,0.5,1.1,1.1,1.1c0.6,0,1.1-0.5,1.1-1.1v-10.8h15v10.8c0,0.6,0.5,1.1,1.1,1.1&#10;&#9;&#9;&#9;&#9;c0.6,0,1.1-0.5,1.1-1.1v-10.8h15v10.8c0,0.6,0.5,1.1,1.1,1.1c0.6,0,1.1-0.5,1.1-1.1v-10.8h15v10.8c0,0.6,0.5,1.1,1.1,1.1&#10;&#9;&#9;&#9;&#9;c0.6,0,1.1-0.5,1.1-1.1v-10.8h15v10.8c0,0.6,0.5,1.1,1.1,1.1c0.6,0,1.1-0.5,1.1-1.1v-10.8h15v10.8c0,0.6,0.5,1.1,1.1,1.1&#10;&#9;&#9;&#9;&#9;c0.6,0,1.1-0.5,1.1-1.1v-10.8h9.4c0.6,0,1.1-0.5,1.1-1.1C885.5,597.6,885,597.1,884.4,597.1z" style="fill: rgb(255, 255, 255);" transform="matrix(1, 0, 0, 1, 0, 0)"/><path class="st1" d="M862.2,373.6c0,0.6,0.5,1.1,1.1,1.1h18.6l-91.8,104c-2.2-1.6-4.9-2.6-7.8-2.6c-4.2,0-8,2-10.4,5.1&#10;&#9;&#9;&#9;&#9;l-42.2-31.5c1.3-2,2-4.4,2-7c0-7.3-5.9-13.2-13.2-13.2c-7.3,0-13.2,5.9-13.2,13.2c0,3.7,1.6,7.1,4.1,9.5l-52.7,65.9&#10;&#9;&#9;&#9;&#9;c-2.1-1.4-4.6-2.2-7.3-2.2c-4.2,0-7.9,1.9-10.3,5l-29.9-20c1-1.9,1.6-4.1,1.6-6.4c0-7.3-5.9-13.2-13.2-13.2&#10;&#9;&#9;&#9;&#9;c-7.3,0-13.2,5.9-13.2,13.2c0,3.8,1.6,7.1,4.1,9.6l-60.9,76.1c-0.4,0.5-0.3,1.2,0.2,1.6c0.2,0.2,0.5,0.2,0.7,0.2&#10;&#9;&#9;&#9;&#9;c0.3,0,0.7-0.1,0.9-0.4l60.9-76.1c2.1,1.4,4.6,2.2,7.3,2.2c4.2,0,7.9-1.9,10.3-5l29.9,20c-1,1.9-1.6,4-1.6,6.4&#10;&#9;&#9;&#9;&#9;c0,7.3,5.9,13.2,13.2,13.2c7.3,0,13.2-5.9,13.2-13.2c0-3.8-1.6-7.1-4.1-9.6l52.7-65.9c2.1,1.4,4.6,2.3,7.4,2.3&#10;&#9;&#9;&#9;&#9;c3.9,0,7.4-1.7,9.8-4.4l42.4,31.6c-1,1.9-1.6,4-1.6,6.2c0,7.3,5.9,13.2,13.2,13.2s13.2-5.9,13.2-13.2c0-3.5-1.4-6.7-3.7-9.1&#10;&#9;&#9;&#9;&#9;l91.5-103.6v18.1c0,0.6,0.5,1.1,1.1,1.1c0.6,0,1.1-0.5,1.1-1.1v-22.2h-22.2C862.7,372.5,862.2,373,862.2,373.6z M597.4,505.5&#10;&#9;&#9;&#9;&#9;c-2.2,0-4.2-0.7-5.9-1.8c-0.6-0.4-1.2-0.9-1.8-1.4c-2-2-3.3-4.7-3.3-7.8c0-6,4.9-10.9,10.9-10.9c6,0,10.9,4.9,10.9,10.9&#10;&#9;&#9;&#9;&#9;c0,1.8-0.5,3.5-1.3,5.1c-0.4,0.7-0.8,1.3-1.3,1.9C603.8,503.9,600.8,505.5,597.4,505.5z M660.2,529.1c0,6-4.9,10.9-10.9,10.9&#10;&#9;&#9;&#9;&#9;c-6,0-10.9-4.9-10.9-10.9c0-1.8,0.5-3.5,1.3-5.1c0.4-0.7,0.8-1.3,1.3-1.9c2-2.4,5-4,8.4-4c2.2,0,4.2,0.7,5.9,1.8&#10;&#9;&#9;&#9;&#9;c0.6,0.4,1.2,0.9,1.8,1.4C658.9,523.3,660.2,526,660.2,529.1z M718.4,453.7c-2.2,0-4.2-0.7-5.9-1.8c-0.6-0.4-1.2-0.9-1.8-1.4&#10;&#9;&#9;&#9;&#9;c-2-2-3.2-4.7-3.2-7.7c0-6,4.9-10.9,10.9-10.9c6,0,10.9,4.9,10.9,10.9c0,2.1-0.6,4-1.6,5.6c-0.4,0.7-0.8,1.3-1.4,1.8&#10;&#9;&#9;&#9;&#9;C724.4,452.3,721.6,453.7,718.4,453.7z M793.2,489.3c0,6-4.9,10.9-10.9,10.9c-6,0-10.9-4.9-10.9-10.9c0-1.7,0.4-3.4,1.2-4.8&#10;&#9;&#9;&#9;&#9;c0.3-0.7,0.7-1.3,1.2-1.9c2-2.5,5.1-4.2,8.6-4.2c2.4,0,4.5,0.8,6.3,2.1c0.6,0.4,1.2,1,1.7,1.5&#10;&#9;&#9;&#9;&#9;C792.1,483.9,793.2,486.5,793.2,489.3z" style="fill: rgb(255, 255, 255);" transform="matrix(1, 0, 0, 1, 0, 0)"/><path d="M 113.599998 375 H 246.599998 V 377.3 H 113.599998 V 375 Z" class="st1" style="fill: rgb(255, 255, 255);" transform="matrix(1, 0, 0, 1, 0, 0)"/><path d="M 113.599998 623.200012 H 246.599998 V 625.500012 H 113.599998 V 623.200012 Z" class="st1" style="fill: rgb(255, 255, 255);" transform="matrix(1, 0, 0, 1, 0, 0)"/><path d="M 1136 375 H 1269 V 377.3 H 1136 V 375 Z" class="st1" style="fill: rgb(255, 255, 255);" transform="matrix(1, 0, 0, 1, 0, 0)"/><path d="M 1136 623.200012 H 1269 V 625.500012 H 1136 V 623.200012 Z" class="st1" style="fill: rgb(255, 255, 255);" transform="matrix(1, 0, 0, 1, 0, 0)"/><path class="st1" d="M205.8,238.4h8.6h3.2h8.6h3.2h8.6h3.2h8.6h3.2h0.8v-1.1c0-2.4-0.2-4.7-0.5-7.1l0.2,0.2l-0.6-3.5l-0.1-0.4&#10;&#9;&#9;&#9;&#9;l0,0c-4.5-26.2-25.1-46.8-51.4-51.4l0,0l-0.4-0.1c0,0,0,0,0,0l-3.5-0.6l0.2,0.2c-2.4-0.3-4.8-0.5-7.1-0.5h-1.1v0.8v3.2v8.6v3.2&#10;&#9;&#9;&#9;&#9;v8.6v3.2v8.6v3.2v8.7v3.2v12.8h12.8H205.8z M250.3,223.6l-45.6-45.6C227.3,183.2,245.1,200.9,250.3,223.6z M192.1,177.2v-0.8&#10;&#9;&#9;&#9;&#9;c2.8,0.1,5.7,0.3,8.6,0.8l2.3,2.3l48.1,48.1c0.5,2.9,0.7,5.7,0.8,8.6H251l-29.4-29.4L192.1,177.2z M192.1,180.4l27.8,27.8&#10;&#9;&#9;&#9;&#9;l27.8,27.8h-8.6l-47-47V180.4z M192.1,200.9v-8.6l43.8,43.8h-8.6l-17.6-17.6L192.1,200.9z M192.1,212.8v-8.6l16,16l16,16h-8.6&#10;&#9;&#9;&#9;&#9;l-11.7-11.7L192.1,212.8z M192.1,216l10.1,10.1l10.1,10.1h-8.6l-5.7-5.7l-5.7-5.7V216z M192.1,236.1v-8.3l4.1,4.1l4.1,4.1H192.1z&#10;&#9;&#9;&#9;&#9;" style="fill: rgb(255, 255, 255);" transform="matrix(1, 0, 0, 1, 0, 0)"/><path class="st1" d="M180.1,311.7c34.8,0,63.1-28.3,63.1-63.1v-1.1h-62v-62h-1.1c-34.8,0-63.1,28.3-63.1,63.1&#10;&#9;&#9;&#9;&#9;C116.9,283.4,145.3,311.7,180.1,311.7z M178.9,187.7v62h62c-0.6,33-27.7,59.7-60.9,59.7c-33.6,0-60.9-27.3-60.9-60.9&#10;&#9;&#9;&#9;&#9;C119.2,215.4,145.9,188.3,178.9,187.7z" style="fill: rgb(255, 255, 255);" transform="matrix(1, 0, 0, 1, 0, 0)"/><path class="st1" d="M135.9,503.3v38.3h19.5v-38.3H135.9z M153.2,539.3h-15v-33.8h15V539.3z" style="fill: rgb(255, 255, 255);" transform="matrix(1, 0, 0, 1, 0, 0)"/><path class="st1" d="M165.6,481.3v60.3h19.5v-60.3H165.6z M182.9,539.3h-15v-55.7h15V539.3z" style="fill: rgb(255, 255, 255);" transform="matrix(1, 0, 0, 1, 0, 0)"/><path class="st1" d="M195.4,460.7v80.9h19.5v-80.9H195.4z M212.6,539.3h-15v-76.4h15V539.3z" style="fill: rgb(255, 255, 255);" transform="matrix(1, 0, 0, 1, 0, 0)"/><path class="st1" d="M225.1,440.2v101.4h19.5V440.2H225.1z M242.3,539.3h-15v-96.9h15V539.3z" style="fill: rgb(255, 255, 255);" transform="matrix(1, 0, 0, 1, 0, 0)"/><path d="M 119.5999984741211 437.5 L 119.5999984741211 557.7000122070312 L 261.1000061035156 557.7000122070312 L 261.1000061035156 555.4000244140625 L 121.9000015258789 555.4000244140625 L 121.9000015258789 437.5 Z" class="st1" style="fill: rgb(255, 255, 255);" transform="matrix(1, 0, 0, 1, 0, 0)"/><path d="M 260.5 550.4000244140625 L 266.8999938964844 556.7999877929688 L 260.29998779296875 563.5 L 261.8999938964844 565.0999755859375 L 270.1000061035156 556.7999877929688 L 262.1000061035156 548.7999877929688 Z" class="st1" style="fill: rgb(255, 255, 255);" transform="matrix(1, 0, 0, 1, 0, 0)"/><path d="M 120.5999984741211 431.70001220703125 L 127.19999694824219 438.29998779296875 L 128.8000030517578 436.70001220703125 L 120.5999984741211 428.5 L 112.5999984741211 436.5 L 114.19999694824219 438.1000061035156 Z" class="st1" style="fill: rgb(255, 255, 255);" transform="matrix(1, 0, 0, 1, 0, 0)"/><path class="st1" d="M244.7,741.3l0-0.6c1.7-23.6-19.5-32.6-21.9-33.6l-1-0.4l-0.5-1c-4.4-9.6-11-14.6-18.9-14.6&#10;&#9;&#9;&#9;&#9;c-7,0-13.6,3.9-16.8,6.3l-1.6,1.1l-1.6-1.1c-3.3-2.3-9.8-6.3-16.8-6.3c-7.9,0-14.4,5-18.9,14.6l-0.5,1l-1,0.4&#10;&#9;&#9;&#9;&#9;c-2.4,1-23.7,10-21.9,33.6l0,0.6l-0.2,0.6c-1.9,4.7-7.4,21.3,3.6,35.8l0.5,0.6l0.1,0.8c0.5,5,3.8,21.9,24.6,29.2l0.3,0.1l0.3,0.2&#10;&#9;&#9;&#9;&#9;c1.1,0.7,7.1,4.5,14.6,5.1l0.9,0.1c0.4,0,0.8,0.1,1.2,0.1c4.8,0,9.2-1.3,13.3-4l1.5-1l1.5,1c4.1,2.6,8.6,4,13.3,4&#10;&#9;&#9;&#9;&#9;c0.4,0,0.8,0,1.2-0.1l0.9-0.1c7.6-0.6,13.6-4.4,14.7-5.1l0.3-0.2l0.3-0.1c20.8-7.3,24.1-24.2,24.6-29.2l0.1-0.8l0.5-0.6&#10;&#9;&#9;&#9;&#9;c10.9-14.5,5.5-31.1,3.6-35.8L244.7,741.3z M182.9,723.7l-2.5,0.2c-12.5,1.2-17.2,11.4-17.4,11.8c-0.2,0.3-0.1,0.6,0,0.8&#10;&#9;&#9;&#9;&#9;c0.1,0.2,0.2,0.4,0.6,0.6c0.1,0.1,0.3,0.1,0.4,0.1c0.3,0,0.8-0.2,1-0.6c0.2-0.4,4.1-8.9,14.8-10.5l3.1-0.4v46.2l-4.3-3.1&#10;&#9;&#9;&#9;&#9;c-3.6-2.6-7.5-4.9-9-5.7l-1.4-0.8v-14.1c0-0.6-0.5-1-1.1-1c-0.6,0-1,0.5-1,1v14.3l-12.8,10.7c-0.4,0.4-0.5,1-0.1,1.5&#10;&#9;&#9;&#9;&#9;c0.2,0.2,0.5,0.4,0.8,0.4c0.2,0,0.4,0,0.7-0.2l12.7-10.5l1.6,0.9c2.2,1.3,9.9,5.8,13.3,9.4l0.7,0.8v31.9l-1.2,0.8&#10;&#9;&#9;&#9;&#9;c-2.9,1.9-6,3.1-9.3,3.6l-3.7,0.5l0.7-3.7c1.2-6.4,0.1-12-3.1-16.4l-1-1.4l0.9-1.5c1.5-2.6,3.5-4.2,5.7-4.6&#10;&#9;&#9;&#9;&#9;c0.6-0.1,1-0.6,0.9-1.2c-0.1-0.5-0.5-0.9-1-0.9l-0.2,0c-2.4,0.4-4.5,1.9-6.2,4.3l-1.6,2.2l-2.2-1.5c-2.5-1.7-4.5-2.4-4.5-2.4&#10;&#9;&#9;&#9;&#9;c-0.1,0-0.2-0.1-0.3-0.1c-0.4,0-0.8,0.2-1,0.7c-0.2,0.5,0.1,1.1,0.7,1.3c0.6,0.2,3.8,1.4,6.7,4.3l0.1,0.1l0.1,0.2&#10;&#9;&#9;&#9;&#9;c0.1,0.1,0.2,0.2,0.2,0.2l0.1,0.1l0.1,0.1c2.6,3,5.3,8.5,3.4,17.1l-0.6,2.7l-2.7-0.6c-5.8-1.3-10-4.1-10.6-4.5l-0.1-0.1l-0.2-0.1&#10;&#9;&#9;&#9;&#9;c-17.8-6.1-22.2-19.6-23.3-25.2l-0.5-2.4l2.4-0.7c6.1-1.8,9.7-4.6,10.9-8.3c2-6.6-4.4-13.4-4.7-13.7c-0.3-0.3-0.6-0.3-0.8-0.3&#10;&#9;&#9;&#9;&#9;c-0.2,0-0.5,0-0.7,0.3c-0.4,0.4-0.4,1.1,0,1.5c0.1,0.1,5.9,6.2,4.2,11.6c-1,3.1-4.3,5.5-10,7l-1.9,0.5l-1.1-1.6&#10;&#9;&#9;&#9;&#9;c-8.5-12.4-4.8-26.1-2.9-31.5l0.3-0.7l0.6-0.5c2.4-2,5.2-3,8.2-3c4.5,0,8.3,2.3,9.7,3.4l0.3,0.2l9.5,12.2&#10;&#9;&#9;&#9;&#9;c0.2,0.3,0.5,0.4,0.8,0.4c0.2,0,0.4,0,0.6-0.2c0.3-0.2,0.4-0.5,0.4-0.7c0-0.2,0-0.5-0.2-0.8l-9.5-12.1l-0.4-0.4&#10;&#9;&#9;&#9;&#9;c-2.4-1.9-6.8-4-11.4-4c-1.5,0-3,0.2-4.5,0.7l-3.9,1.3l0.3-4.1c1-11.7,8-18.8,13.8-22.7l3.7-2.5l0.5,4.4c0.4,3.7,1.5,6.6,3.2,8.5&#10;&#9;&#9;&#9;&#9;c1.5,1.7,3.5,2.7,5.9,2.7l0.3,0l0.3-0.2c0.4-0.3,10.7-6.9,16.4-16.6c0.2-0.3,0.2-0.6,0.1-0.8c0-0.2-0.2-0.4-0.5-0.6&#10;&#9;&#9;&#9;&#9;c-0.2-0.1-0.3-0.1-0.5-0.1c-0.4,0-0.7,0.2-0.9,0.5c-4.3,7.3-11.6,12.9-14.5,15l-1.1,0.8l-1.3-0.4c-1-0.3-1.9-0.9-2.7-1.7&#10;&#9;&#9;&#9;&#9;c-2.5-2.8-2.8-7.8-2.8-10.6l0.1-2l2.3-0.8l0.2-0.4c4.2-9.8,10.1-14.8,17.6-14.8c6.8,0,13.1,4,16.2,6.3l1.1,0.8V723.7z&#10;&#9;&#9;&#9;&#9; M240.5,775.2l-1.1,1.6l-1.9-0.5c-5.6-1.6-9-3.9-10-7c-1.7-5.4,4.2-11.6,4.2-11.6c0.4-0.4,0.4-1.1,0-1.5&#10;&#9;&#9;&#9;&#9;c-0.2-0.2-0.5-0.3-0.7-0.3c-0.2,0-0.5,0-0.8,0.3c-0.3,0.3-6.8,7.1-4.7,13.7c1.2,3.7,4.8,6.5,10.9,8.3l2.4,0.7l-0.5,2.4&#10;&#9;&#9;&#9;&#9;c-1.1,5.5-5.5,19.1-23.3,25.2l-0.1,0l-0.2,0.1c-0.5,0.3-4.7,3.2-10.5,4.5l-2.7,0.6L201,809c-1.9-8.6,0.8-14.1,3.4-17.1l0.1-0.1&#10;&#9;&#9;&#9;&#9;l0.1-0.1c0,0,0.1-0.1,0.2-0.2l0.1-0.2l0.1-0.2c2.8-2.8,5.8-4,6.7-4.3c0.6-0.2,0.9-0.8,0.7-1.3c-0.2-0.5-0.6-0.7-1-0.7&#10;&#9;&#9;&#9;&#9;c-0.1,0-0.2,0-0.3,0.1c0,0-2,0.7-4.5,2.4l-2.2,1.5l-1.6-2.2c-1.8-2.4-3.9-3.9-6.4-4.3c-0.5,0-0.9,0.4-1,0.9&#10;&#9;&#9;&#9;&#9;c-0.1,0.6,0.3,1.1,0.8,1.2c2.2,0.4,4.1,2,5.7,4.6l0.9,1.5l-1,1.4c-3.2,4.5-4.3,10-3.1,16.4l0.7,3.7l-3.7-0.5&#10;&#9;&#9;&#9;&#9;c-3.3-0.5-6.4-1.7-9.3-3.6l-1.2-0.8v-31.9l0.7-0.8c3.4-3.6,11-8.1,13.3-9.4l1.6-0.9l12.7,10.6c0.2,0.2,0.5,0.2,0.7,0.2&#10;&#9;&#9;&#9;&#9;c0.1,0,0.5,0,0.8-0.4c0.4-0.4,0.3-1.1-0.1-1.5l-12.8-10.7v-14.3c0-0.6-0.5-1-1-1c-0.6,0-1,0.5-1,1v14.1l-1.4,0.8&#10;&#9;&#9;&#9;&#9;c-1.5,0.9-5.4,3.1-9,5.7l-4.3,3.1v-46.2l3.1,0.4c10.6,1.5,14.7,10.1,14.8,10.5c0.2,0.5,0.6,0.6,1,0.6c0.1,0,0.3,0,0.4-0.1&#10;&#9;&#9;&#9;&#9;c0.5-0.2,0.8-0.9,0.5-1.4c-0.2-0.4-5-10.6-17.4-11.8l-2.5-0.2v-23.3l1.1-0.8c3.2-2.4,9.5-6.3,16.2-6.3c7.5,0,13.4,5,17.6,14.8&#10;&#9;&#9;&#9;&#9;l0.2,0.4l0.4,0.1l2,0.5l0,2.1c0,2.7-0.4,7.8-2.9,10.6c-0.7,0.8-1.6,1.4-2.6,1.7l-1.3,0.4l-1.1-0.8c-2.9-2.1-10.2-7.7-14.5-15&#10;&#9;&#9;&#9;&#9;c-0.2-0.3-0.5-0.5-0.9-0.5c-0.2,0-0.4,0-0.5,0.2c-0.3,0.2-0.4,0.5-0.5,0.6c0,0.2-0.1,0.5,0.1,0.8c5.7,9.7,16.3,16.5,16.4,16.6&#10;&#9;&#9;&#9;&#9;l0.3,0.2l0.3,0c2.4-0.1,4.4-1,5.9-2.7c1.6-1.9,2.7-4.8,3.2-8.5l0.5-4.4l3.7,2.5c5.8,3.9,12.9,11,13.8,22.7l0.3,4.1l-3.9-1.3&#10;&#9;&#9;&#9;&#9;c-1.4-0.5-2.9-0.7-4.5-0.7c-4.6,0-9,2.1-11.4,4l-0.4,0.4l-9.5,12.1c-0.4,0.5-0.3,1.1,0.2,1.5c0.2,0.2,0.5,0.2,0.6,0.2&#10;&#9;&#9;&#9;&#9;c0.3,0,0.6-0.1,0.8-0.4l9.5-12.2l0.3-0.2c1.4-1,5.1-3.4,9.7-3.4c3,0,5.8,1,8.2,3l0.6,0.5l0.3,0.7&#10;&#9;&#9;&#9;&#9;C244.9,747.9,249.2,762.4,240.5,775.2z" style="fill: rgb(255, 255, 255);" transform="matrix(1, 0, 0, 1, 0, 0)"/><path class="st1" d="M1280.5,433.3h-156.1c-3.7,0-6.7,3-6.7,6.7v106.3c0,3.7,3,6.7,6.7,6.7h56l-1.7,18.1h-11.5c-0.6,0-1,0.4-1,1&#10;&#9;&#9;&#9;&#9;v6.7c0,0.5,0.4,1,1,1h70.9c0.5,0,1-0.4,1-1v-6.7c0-0.6-0.4-1-1-1h-11.5l-1.7-18.1h55.7c3.7,0,6.7-3,6.7-6.7V440.1&#10;&#9;&#9;&#9;&#9;C1287.3,436.3,1284.2,433.3,1280.5,433.3z M1237.1,573.2v4.7h-68.9v-4.7H1237.1z M1180.7,571.2l1.7-18.1h40.4l1.7,18.1H1180.7z&#10;&#9;&#9;&#9;&#9; M1285.3,546.3c0,2.6-2.1,4.8-4.8,4.8h-156.1c-2.6,0-4.8-2.1-4.8-4.8V440.1c0-2.6,2.1-4.7,4.8-4.7h156.1c2.6,0,4.8,2.1,4.8,4.7&#10;&#9;&#9;&#9;&#9;V546.3z" style="fill: rgb(255, 255, 255);" transform="matrix(1, 0, 0, 1, 0, 0)"/><path class="st1" d="M1276.1,444.1h-147.2c-0.5,0-1,0.4-1,1v96.2c0,0.5,0.4,1,1,1h147.2c0.5,0,1-0.4,1-1v-96.2&#10;&#9;&#9;&#9;&#9;C1277.1,444.5,1276.6,444.1,1276.1,444.1z M1275.1,540.3h-145.2v-94.2h145.2V540.3z" style="fill: rgb(255, 255, 255);" transform="matrix(1, 0, 0, 1, 0, 0)"/><path class="st1" d="M1251.2,524.9h-3.5v-48.4c0-2.3-1.8-4.1-4.1-4.1h-12.1c-2.3,0-4.1,1.8-4.1,4.1v48.4h-3.1v-37.8&#10;&#9;&#9;&#9;&#9;c0-2.3-1.8-4.1-4.1-4.1h-12.1c-2.3,0-4.1,1.8-4.1,4.1v37.8h-3.1v-26.2c0-2.3-1.8-4.1-4.1-4.1h-12.1c-2.3,0-4.1,1.8-4.1,4.1v26.2&#10;&#9;&#9;&#9;&#9;h-3.1v-13.1c0-2.3-1.8-4.1-4.1-4.1h-12.1c-2.3,0-4.1,1.8-4.1,4.1v13.1h-3.4v7.6h97.4V524.9z M1229.2,476.4c0-1.3,1-2.3,2.3-2.3&#10;&#9;&#9;&#9;&#9;h12.1c1.3,0,2.3,1,2.3,2.3v48.4h-16.7V476.4z M1205.8,487.1c0-1.2,1-2.3,2.3-2.3h12.1c1.3,0,2.3,1,2.3,2.3v37.8h-16.7V487.1z&#10;&#9;&#9;&#9;&#9; M1182.4,498.7c0-1.3,1-2.3,2.3-2.3h12.1c1.3,0,2.3,1,2.3,2.3v26.2h-16.7V498.7z M1159,511.8c0-1.3,1-2.3,2.3-2.3h12.1&#10;&#9;&#9;&#9;&#9;c1.3,0,2.3,1,2.3,2.3v13.1H1159V511.8z M1249.4,530.6h-93.7v-3.9h1.7h2h16h2h3.4h2h16h2h3.4h2h16h2h3.5h2h15.9h2h1.9V530.6z" style="fill: rgb(255, 255, 255);" transform="matrix(1, 0, 0, 1, 0, 0)"/><path class="st1" d="M1160.7,498.8h11.1l10.2-10.3h10.5l10.2-10.3h11L1224,468h10.5l10.6-10.7c0.6-0.6,0.6-1.5,0-2&#10;&#9;&#9;&#9;&#9;c-0.6-0.5-1.5-0.5-2,0l-9.8,9.8h-10.5l-10.2,10.2h-11l-10.2,10.3h-10.5l-10.2,10.3h-9.9c-0.8,0-1.4,0.6-1.4,1.4&#10;&#9;&#9;&#9;&#9;C1159.3,498.1,1160,498.8,1160.7,498.8z" style="fill: rgb(255, 255, 255);" transform="matrix(1, 0, 0, 1, 0, 0)"/><path class="st1" d="M1199,311.3l0.2,0c1.9,0.1,3.4,0.2,4.9,0.2c1.5,0,3-0.1,5-0.2c32.5-2.6,57.9-30.1,57.9-62.7&#10;&#9;&#9;&#9;&#9;c0-11.4-3.1-22.5-8.9-32.2l-0.1-0.2c-10.5-17.4-28.8-28.7-48.9-30.3c-1.9-0.2-3.5-0.2-5-0.2c-1.5,0-3.1,0.1-5,0.2&#10;&#9;&#9;&#9;&#9;c-32.5,2.6-57.9,30.1-57.9,62.7C1141.1,281.2,1166.6,308.7,1199,311.3z M1254.6,282.6c-9.4,14-24.2,23.5-40.6,26.2l-2.5,0.4&#10;&#9;&#9;&#9;&#9;l1.8-1.9c0.1-0.1,0.3-0.4,0.3-0.4c1.9-2,3.5-4,5-5.9c1.5-1.9,2.9-4,4.3-6.1c0.1-0.1,0.2-0.3,0.2-0.4l0.1-0.2c1.2-2,2.4-4,3.5-6.2&#10;&#9;&#9;&#9;&#9;l0.5-0.9c0.9-1.8,1.7-3.6,2.5-5.4l0.2-0.5h25.7L1254.6,282.6z M1265,250.4c-0.3,10-3.1,19.9-8.1,28.5l-0.2,0.4h-26.1l0.4-1.2&#10;&#9;&#9;&#9;&#9;c0.6-1.5,1.1-3.2,1.6-5.1c0.1-0.3,0.3-1.1,0.3-1.1c0.6-2.3,1.2-4.6,1.6-6.8l0.2-1c0.5-2.6,0.8-4.9,1-7.2c0-0.2,0-0.3,0-0.5l0-0.2&#10;&#9;&#9;&#9;&#9;c0.2-1.9,0.3-3.9,0.3-5.9l28.9-0.9L1265,250.4z M1257,218.2c4.9,8.6,7.7,18.5,8,28.5l0,0.9h-29l0-0.9c0-1.8-0.1-4-0.3-6.1&#10;&#9;&#9;&#9;&#9;c0-0.5-0.1-0.9-0.2-1.4c-0.1-0.4-0.1-0.8-0.2-1.2c-0.2-1.7-0.4-3.5-0.7-5.3c-0.1-0.6-0.3-1.3-0.4-1.9l-0.3-1.4&#10;&#9;&#9;&#9;&#9;c-0.3-1.5-0.7-3-1.1-4.4c-0.2-0.8-0.5-1.5-0.7-2.3l-0.3-0.8c-0.1-0.4-0.3-0.8-0.4-1.3c-0.2-0.6-0.4-1.2-0.6-1.9l-0.4-1.2h26.2&#10;&#9;&#9;&#9;&#9;L1257,218.2z M1214,188.4c16.5,2.7,31.4,12.3,40.7,26.2l0.9,1.4h-25.9l-0.2-0.5l-0.1-0.3c-0.1-0.1-0.1-0.3-0.2-0.4&#10;&#9;&#9;&#9;&#9;c-0.9-2.2-1.8-4.1-2.7-5.8l-0.3-0.5c-0.9-1.8-2-3.7-3.4-5.8c-0.2-0.4-0.5-0.8-0.7-1.2c-1.3-2-2.5-3.8-3.8-5.4l-0.7-0.9&#10;&#9;&#9;&#9;&#9;c-1.3-1.7-2.7-3.4-4.2-4.9c-0.1-0.1-0.3-0.4-0.3-0.4l-1.7-1.9L1214,188.4z M1205,187.6l0.9,0c0.8,0,1.6,0.1,2.4,0.1l0.3,0&#10;&#9;&#9;&#9;&#9;l0.6,0.6c1.9,1.9,3.6,3.7,5.1,5.6l0.2,0.2c1.5,1.7,2.9,3.7,4.5,6c0,0,0.4,0.6,0.5,0.8c1.3,1.9,2.5,3.9,3.8,6.2&#10;&#9;&#9;&#9;&#9;c0.2,0.3,0.4,0.6,0.5,1c1.1,2,2.1,4.1,3.1,6.3l0.8,1.7H1205V187.6z M1205,217.8h23.5l0.2,0.6c0.4,1,0.7,2.1,1.1,3.1l0.5,1.6&#10;&#9;&#9;&#9;&#9;c0.3,0.7,0.5,1.5,0.7,2.2c0.4,1.3,0.7,2.7,1,4c0,0,0.3,1.3,0.4,1.7c0.2,0.7,0.3,1.3,0.4,2c0.3,1.5,0.5,3,0.7,4.5l0.1,0.6&#10;&#9;&#9;&#9;&#9;c0,0.3,0.1,0.7,0.1,1c0.1,0.6,0.2,1.1,0.2,1.7c0.2,2.1,0.2,4.1,0.3,6.1l0,0.9H1205V217.8z M1205,249.5h29.3l0,1.4&#10;&#9;&#9;&#9;&#9;c0,0.7,0,1.4-0.1,2c0,0.3,0,0.6-0.1,0.9l-0.1,1.1c-0.1,0.8-0.1,1.5-0.2,2.2c0,0.4-0.1,0.8-0.1,1.2l-0.2,1.4&#10;&#9;&#9;&#9;&#9;c-0.1,0.5-0.1,1.1-0.2,1.6c-0.1,0.4-0.1,0.8-0.2,1.1l-0.2,1.4c-0.1,0.5-0.2,1.1-0.3,1.6c-0.1,0.5-0.2,1-0.3,1.4l-0.3,1.2&#10;&#9;&#9;&#9;&#9;c-0.1,0.5-0.2,1-0.3,1.4c-0.1,0.4-0.2,0.8-0.3,1.3l-0.3,1.1c-0.2,0.6-0.3,1.1-0.5,1.7c-0.1,0.5-0.3,0.9-0.5,1.4l-0.3,1&#10;&#9;&#9;&#9;&#9;c-0.2,0.5-0.4,1.1-0.5,1.6c-0.1,0.2-0.2,0.5-0.3,0.7l-0.4,0.9H1205V249.5z M1205,281.2h22.8l-0.5,1.2c-0.2,0.4-0.3,0.8-0.5,1.1&#10;&#9;&#9;&#9;&#9;l-0.3,0.6c-0.2,0.4-0.4,0.9-0.6,1.3c-0.2,0.4-0.4,0.8-0.6,1.2l-0.7,1.3c-0.2,0.4-0.4,0.8-0.6,1.2c-0.2,0.4-0.5,0.9-0.8,1.3&#10;&#9;&#9;&#9;&#9;l-0.5,0.9c-0.3,0.5-0.5,0.9-0.8,1.4c-0.2,0.4-0.5,0.8-0.8,1.2l-0.6,0.9c-0.3,0.5-0.6,1-1,1.5c-0.3,0.4-0.6,0.8-0.9,1.2l-0.7,0.9&#10;&#9;&#9;&#9;&#9;c-0.3,0.4-0.6,0.9-1,1.3c-0.3,0.4-0.6,0.7-0.9,1.1l-0.7,0.9c-0.3,0.4-0.7,0.9-1.1,1.3c-0.3,0.3-0.6,0.6-0.8,1l-1,1.1&#10;&#9;&#9;&#9;&#9;c-0.3,0.4-0.7,0.8-1.1,1.2c-0.4,0.4-0.8,0.8-1.1,1.2l-0.2,0.2c-0.5,0.5-0.9,1-1.4,1.5l-0.2,0.2l-0.3,0c-0.8,0.1-1.6,0.1-2.3,0.1&#10;&#9;&#9;&#9;&#9;l-0.9,0V281.2z M1203.1,309.6l-0.9,0c-0.8,0-1.6-0.1-2.4-0.1l-0.3,0l-0.2-0.2c-0.5-0.5-1-1-1.4-1.5l-0.4-0.4&#10;&#9;&#9;&#9;&#9;c-0.3-0.3-0.6-0.6-0.9-1c-0.3-0.3-0.6-0.6-0.9-1l-1.2-1.3c-0.3-0.3-0.5-0.6-0.8-0.9c-0.4-0.5-0.8-1-1.1-1.4l-0.6-0.8&#10;&#9;&#9;&#9;&#9;c-0.3-0.4-0.6-0.7-0.9-1.1c-0.4-0.6-0.9-1.2-1.3-1.7l-0.3-0.4c-0.3-0.4-0.6-0.9-0.9-1.3c-0.3-0.4-1.5-2.3-1.5-2.3&#10;&#9;&#9;&#9;&#9;c-0.3-0.4-0.5-0.8-0.8-1.2c-0.3-0.5-0.6-1-0.8-1.4l-0.5-0.9c-0.3-0.4-0.5-0.9-0.7-1.3c-0.3-0.5-0.5-1-0.8-1.5l-0.4-0.9&#10;&#9;&#9;&#9;&#9;c-0.2-0.5-0.5-0.9-0.7-1.4c-0.2-0.5-0.4-1-0.7-1.4l-0.2-0.5c0,0-0.4-0.9-0.5-1.1l-0.5-1.2h22.8V309.6z M1203.1,279.4h-23&#10;&#9;&#9;&#9;&#9;l-0.6-0.1l-0.2-0.5c-0.1-0.3-0.3-0.7-0.4-1c-0.1-0.4-0.3-0.8-0.4-1.3l-0.4-1.3c-0.2-0.5-0.3-1-0.5-1.4c-0.2-0.5-0.3-1-0.5-1.6&#10;&#9;&#9;&#9;&#9;l-0.3-1.2c-0.1-0.4-0.3-0.9-0.4-1.3c-0.1-0.5-0.2-1-0.3-1.5l-0.3-1.5c-0.1-0.4-0.2-0.8-0.3-1.1c-0.1-0.6-0.2-1.3-0.3-1.9l-0.2-1&#10;&#9;&#9;&#9;&#9;c-0.1-0.4-0.2-0.8-0.2-1.3c-0.1-0.5-0.1-1.1-0.2-1.6l-0.2-1.4c-0.1-0.4-0.1-0.8-0.1-1.2c-0.1-0.9-0.1-1.8-0.2-2.8l0-0.5&#10;&#9;&#9;&#9;&#9;c0-0.3-0.1-0.7-0.1-1c0-0.5,0-1,0-1.6l0-1.8h29.3V279.4z M1203.1,247.7h-29.2l0-0.9c0-1.9,0.1-4,0.3-6.1c0.1-0.5,0.1-1.1,0.2-1.6&#10;&#9;&#9;&#9;&#9;c0.1-0.4,0.1-0.7,0.2-1.1l0.1-0.6c0.2-1.5,0.4-3,0.7-4.5c0.1-0.7,0.3-1.5,0.5-2.2l0.2-1l0.2-0.8c0.3-1.2,0.5-2.4,0.9-3.7&#10;&#9;&#9;&#9;&#9;c0.2-0.8,0.5-1.5,0.7-2.3l0.5-1.5c0.3-1,0.7-2.1,1.1-3.1l0.2-0.6h23.5V247.7z M1199.5,187.7l0.3,0c0.8-0.1,1.6-0.1,2.4-0.1l0.9,0&#10;&#9;&#9;&#9;&#9;v28.4h-21.4l-1.2-0.2l0.5-1.2c0.1-0.1,0.1-0.3,0.2-0.4c0.9-2.1,2-4.2,3.1-6.3l0.6-1c1.2-2.2,2.5-4.2,3.8-6.1l0.5-0.8&#10;&#9;&#9;&#9;&#9;c1.5-2.1,3-4.1,4.5-6l0.2-0.2c1.6-1.9,3.3-3.7,5.2-5.6L1199.5,187.7z M1153.5,214.6c9.4-13.9,24.2-23.5,40.6-26.2l2.6-0.4&#10;&#9;&#9;&#9;&#9;l-1.8,1.9c0,0-0.3,0.3-0.3,0.3c-1.4,1.5-2.8,3.2-4.2,5c0,0-0.5,0.7-0.7,0.8c-1.4,1.8-2.6,3.6-3.8,5.4c-0.2,0.4-0.5,0.7-0.7,1.1&#10;&#9;&#9;&#9;&#9;c-1.3,2.1-2.4,4-3.4,5.9c0,0-0.2,0.4-0.2,0.4c-0.9,1.8-1.9,3.8-2.8,5.9c-0.1,0.1-0.1,0.3-0.2,0.4c0,0.1-0.1,0.2-0.1,0.3l-0.2,0.5&#10;&#9;&#9;&#9;&#9;h-25.8L1153.5,214.6z M1143.1,246.8c0.3-10,3.1-19.9,8.1-28.5l0.3-0.4h26.2l-0.4,1.2c-0.2,0.6-0.4,1.3-0.6,1.9&#10;&#9;&#9;&#9;&#9;c-0.1,0.4-0.2,0.8-0.4,1.2l-0.3,1c-0.2,0.7-0.5,1.4-0.7,2.2c-0.4,1.6-0.8,3.3-1.1,4.7l-0.2,1c-0.2,0.7-0.3,1.3-0.4,2&#10;&#9;&#9;&#9;&#9;c-0.3,1.7-0.5,3.4-0.8,5.3c0,0.4-0.1,0.7-0.1,1.1c-0.1,0.5-0.1,1-0.2,1.5c-0.2,2.1-0.3,4.2-0.3,6.1l0,0.9h-29L1143.1,246.8z&#10;&#9;&#9;&#9;&#9; M1151.2,278.9c-5-8.6-7.8-18.5-8.1-28.5l0-0.9h28.9l0,0.9c0,2,0.1,4,0.3,5.9c0,0.1,0.1,0.7,0.1,0.7c0.2,2.2,0.5,4.6,1,7.2&#10;&#9;&#9;&#9;&#9;l0.1,0.4c0,0.2,0.1,0.4,0.1,0.6c0.4,2.2,0.9,4.4,1.6,6.8c0,0,0.2,0.8,0.3,1.1c0.6,2,1.1,3.6,1.6,5l0.4,1.2h-26.1L1151.2,278.9z&#10;&#9;&#9;&#9;&#9; M1152.6,281.2h25.7l0.2,0.5c0.7,1.8,1.5,3.6,2.4,5.4l0.5,0.9c1.1,2.2,2.3,4.3,3.5,6.2c0,0,0.3,0.5,0.4,0.6&#10;&#9;&#9;&#9;&#9;c1.4,2.2,2.8,4.3,4.3,6.3c1.5,1.9,3.1,3.8,4.9,5.8c0.1,0.1,0.1,0.2,0.2,0.2l0.1,0.1l1.8,1.9l-2.5-0.4&#10;&#9;&#9;&#9;&#9;c-16.3-2.7-31.1-12.3-40.6-26.2L1152.6,281.2z" style="fill: rgb(255, 255, 255);" transform="matrix(1, 0, 0, 1, 0, 0)"/><path class="st1" d="M1259.3,721.5l-1.5-0.9l0.5-1.7c0.5-1.6,0.7-3.3,0.7-5c0-9.8-7.9-17.7-17.7-17.7c-2.4,0-4.7,0.5-6.8,1.4&#10;&#9;&#9;&#9;&#9;l-1.4,0.6l-1-1.1c-9.2-9.8-22.2-15.4-35.7-15.4c-22.1,0-41.6,14.9-47.3,36.3l-0.3,1l-1,0.4c-13.3,5.6-21.9,18.5-21.9,32.9&#10;&#9;&#9;&#9;&#9;c0,19.7,16,35.7,35.7,35.7h20.7v21.5c0,7.5,6.1,13.6,13.6,13.6h40.4c7.5,0,13.6-6.1,13.6-13.6V787v0c15.8-4,27.2-18.5,27.2-34.6&#10;&#9;&#9;&#9;&#9;C1277.1,739.5,1270.4,728,1259.3,721.5z M1247.8,809.7c0,6.3-5.2,11.5-11.5,11.5h-40.4c-6.3,0-11.5-5.1-11.5-11.5v-5.9h63.4&#10;&#9;&#9;&#9;&#9;V809.7z M1247.8,785.4v0.2v1.6v0.2v14.2h-63.4v-13.6v-0.2v-1.6v-0.2v-8.9h63.4V785.4z M1247.8,775.1h-63.4v-5.8&#10;&#9;&#9;&#9;&#9;c0-6.3,5.1-11.5,11.5-11.5h40.4c6.3,0,11.5,5.2,11.5,11.5V775.1z M1192.6,756.1v-13.6c0-13,10.5-23.5,23.5-23.5&#10;&#9;&#9;&#9;&#9;c13,0,23.5,10.5,23.5,23.5v13.6l-1.3-0.2c-0.7-0.1-1.3-0.2-2-0.2h-40.4c-0.7,0-1.3,0.1-2,0.2L1192.6,756.1z M1249.9,784.9v-15.7&#10;&#9;&#9;&#9;&#9;c0-5.2-2.9-9.9-7.7-12.2l-0.6-0.3v-14.3c0-14-11.4-25.5-25.5-25.5c-14,0-25.5,11.4-25.5,25.5v14.3l-0.6,0.3&#10;&#9;&#9;&#9;&#9;c-4.7,2.3-7.7,7-7.7,12.2v16.9h-20.7c-18.6,0-33.7-15.1-33.7-33.7c0-14.1,8.9-26.8,22.1-31.6l0.5-0.2l0.1-0.5&#10;&#9;&#9;&#9;&#9;c5-21.4,23.8-36.3,45.7-36.3c13.8,0,26.8,6,35.7,16.5l0.5,0.6l0.1,0.1l0.7-0.4c2.4-1.4,5.2-2.2,7.9-2.2c8.7,0,15.7,7,15.7,15.7&#10;&#9;&#9;&#9;&#9;c0,2.3-0.5,4.6-1.5,6.7l-0.4,0.9l0.9,0.4c11.8,5.7,19.1,17.3,19.1,30.3C1275,767.6,1264.7,781,1249.9,784.9z" style="fill: rgb(255, 255, 255);" transform="matrix(1, 0, 0, 1, 0, 0)"/><path class="st1" d="M851.9,198.1l0.5,0.2l0.5-0.2c38.1-18.8,33.4-70.1,33.4-70.6l-0.1-1h-67.6l-0.1,1&#10;&#9;&#9;&#9;&#9;C818.4,128,813.7,179.3,851.9,198.1z M820.7,128.7h63.4c0.4,7.2,1.6,50.2-31.7,67.1C819.1,178.9,820.2,135.9,820.7,128.7z" style="fill: rgb(255, 255, 255);" transform="matrix(1, 0, 0, 1, -153.01308386881726, -48.209601766887616)"/><path class="st1" d="M984.4,733.7c-0.3,0-0.6-0.1-0.9-0.4l-18.3-18.3c-0.5-0.5-0.5-1.3,0-1.8c0.5-0.5,1.3-0.5,1.8,0l18.3,18.3&#10;&#9;&#9;&#9;c0.5,0.5,0.5,1.3,0,1.8C985.1,733.6,984.7,733.7,984.4,733.7z" style="fill: rgb(255, 255, 255);" transform="matrix(1, 0, 0, 1, 0, 0)"/><path class="st1" d="M966.1,733.7c-0.3,0-0.6-0.1-0.9-0.4c-0.5-0.5-0.5-1.3,0-1.8l18.3-18.3c0.5-0.5,1.3-0.5,1.8,0&#10;&#9;&#9;&#9;c0.5,0.5,0.5,1.3,0,1.8L967,733.3C966.8,733.6,966.5,733.7,966.1,733.7z" style="fill: rgb(255, 255, 255);" transform="matrix(1, 0, 0, 1, 0, 0)"/><path class="st1" d="M1111.2,331.3c-0.3,0-0.6-0.1-0.9-0.4l-18.3-18.3c-0.5-0.5-0.5-1.3,0-1.8c0.5-0.5,1.3-0.5,1.8,0l18.3,18.3&#10;&#9;&#9;&#9;c0.5,0.5,0.5,1.3,0,1.8C1111.9,331.1,1111.5,331.3,1111.2,331.3z" style="fill: rgb(255, 255, 255);" transform="matrix(1, 0, 0, 1, 0, 0)"/><path class="st1" d="M1092.9,331.3c-0.3,0-0.6-0.1-0.9-0.4c-0.5-0.5-0.5-1.3,0-1.8l18.3-18.3c0.5-0.5,1.3-0.5,1.8,0&#10;&#9;&#9;&#9;c0.5,0.5,0.5,1.3,0,1.8l-18.3,18.3C1093.6,331.1,1093.2,331.3,1092.9,331.3z" style="fill: rgb(255, 255, 255);" transform="matrix(1, 0, 0, 1, 0, 0)"/><path class="st1" d="M366.2,480.2c-0.3,0-0.6-0.1-0.9-0.4L347,461.6c-0.5-0.5-0.5-1.3,0-1.8c0.5-0.5,1.3-0.5,1.8,0l18.3,18.3&#10;&#9;&#9;&#9;c0.5,0.5,0.5,1.3,0,1.8C366.8,480.1,366.5,480.2,366.2,480.2z" style="fill: rgb(255, 255, 255);" transform="matrix(1, 0, 0, 1, 0, 0)"/><path class="st1" d="M347.9,480.2c-0.3,0-0.6-0.1-0.9-0.4c-0.5-0.5-0.5-1.3,0-1.8l18.3-18.3c0.5-0.5,1.3-0.5,1.8,0&#10;&#9;&#9;&#9;c0.5,0.5,0.5,1.3,0,1.8l-18.3,18.3C348.5,480.1,348.2,480.2,347.9,480.2z" style="fill: rgb(255, 255, 255);" transform="matrix(1, 0, 0, 1, 0, 0)"/><path class="st1" d="M332.6,221.5c-0.3,0-0.6-0.1-0.9-0.4l-28-28c-0.5-0.5-0.5-1.3,0-1.8c0.5-0.5,1.3-0.5,1.8,0l28,28&#10;&#9;&#9;&#9;c0.5,0.5,0.5,1.3,0,1.8C333.2,221.4,332.9,221.5,332.6,221.5z" style="fill: rgb(255, 255, 255);" transform="matrix(1, 0, 0, 1, 0, 0)"/><path class="st1" d="M304.6,221.5c-0.3,0-0.6-0.1-0.9-0.4c-0.5-0.5-0.5-1.3,0-1.8l28-28c0.5-0.5,1.3-0.5,1.8,0&#10;&#9;&#9;&#9;c0.5,0.5,0.5,1.3,0,1.8l-28,28C305.2,221.4,304.9,221.5,304.6,221.5z" style="fill: rgb(255, 255, 255);" transform="matrix(1, 0, 0, 1, 0, 0)"/><path class="st1" d="M876.2,770.4c-5.8,0-10.6-4.7-10.6-10.6c0-5.8,4.7-10.6,10.6-10.6c5.8,0,10.6,4.7,10.6,10.6&#10;&#9;&#9;&#9;C886.8,765.6,882,770.4,876.2,770.4z M876.2,751.7c-4.5,0-8.1,3.6-8.1,8.1c0,4.5,3.6,8.1,8.1,8.1c4.5,0,8.1-3.6,8.1-8.1&#10;&#9;&#9;&#9;C884.3,755.3,880.6,751.7,876.2,751.7z" style="fill: rgb(255, 255, 255);" transform="matrix(1, 0, 0, 1, 0, 0)"/><path class="st1" d="M1053,619.3c-4.4,0-8-3.6-8-8s3.6-8,8-8s8,3.6,8,8S1057.3,619.3,1053,619.3z M1053,605.8&#10;&#9;&#9;&#9;c-3,0-5.5,2.5-5.5,5.5c0,3,2.5,5.5,5.5,5.5s5.5-2.5,5.5-5.5C1058.4,608.3,1056,605.8,1053,605.8z" style="fill: rgb(255, 255, 255);" transform="matrix(1, 0, 0, 1, 0, 0)"/><path class="st1" d="M297.9,343.5c-4.4,0-8-3.6-8-8s3.6-8,8-8c4.4,0,8,3.6,8,8S302.3,343.5,297.9,343.5z M297.9,330&#10;&#9;&#9;&#9;c-3,0-5.5,2.5-5.5,5.5s2.5,5.5,5.5,5.5s5.5-2.5,5.5-5.5S300.9,330,297.9,330z" style="fill: rgb(255, 255, 255);" transform="matrix(1, 0, 0, 1, 0, 0)"/><path class="st1" d="M323.3,724.8c-5.8,0-10.6-4.7-10.6-10.6c0-5.8,4.7-10.6,10.6-10.6c5.8,0,10.6,4.7,10.6,10.6&#10;&#9;&#9;&#9;C333.9,720,329.1,724.8,323.3,724.8z M323.3,706.1c-4.5,0-8.1,3.6-8.1,8.1c0,4.5,3.6,8.1,8.1,8.1c4.5,0,8.1-3.6,8.1-8.1&#10;&#9;&#9;&#9;C331.4,709.7,327.8,706.1,323.3,706.1z" style="fill: rgb(255, 255, 255);" transform="matrix(1, 0, 0, 1, 0, 0)"/><path class="st1" d="M979.6,184.7c-5.8,0-10.6-4.7-10.6-10.6c0-5.8,4.7-10.6,10.6-10.6c5.8,0,10.6,4.7,10.6,10.6&#10;&#9;&#9;&#9;C990.2,180,985.4,184.7,979.6,184.7z M979.6,166c-4.5,0-8.1,3.6-8.1,8.1s3.6,8.1,8.1,8.1c4.5,0,8.1-3.6,8.1-8.1&#10;&#9;&#9;&#9;S984.1,166,979.6,166z" style="fill: rgb(255, 255, 255);" transform="matrix(1, 0, 0, 1, 0, 0)"/><path class="st1" d="M1034.5,383.2H1015c-0.7,0-1.2-0.6-1.2-1.2s0.6-1.2,1.2-1.2h19.5c0.7,0,1.2,0.6,1.2,1.2&#10;&#9;&#9;&#9;S1035.2,383.2,1034.5,383.2z" style="fill: rgb(255, 255, 255);" transform="matrix(1, 0, 0, 1, 0, 0)"/><path class="st1" d="M376.5,583.3H357c-0.7,0-1.2-0.6-1.2-1.2c0-0.7,0.6-1.2,1.2-1.2h19.5c0.7,0,1.2,0.6,1.2,1.2&#10;&#9;&#9;&#9;C377.8,582.7,377.2,583.3,376.5,583.3z" style="fill: rgb(255, 255, 255);" transform="matrix(1, 0, 0, 1, 0, 0)"/><path class="st1" d="M1062.7,228.9h-19.5c-0.7,0-1.2-0.6-1.2-1.2c0-0.7,0.6-1.2,1.2-1.2h19.5c0.7,0,1.2,0.6,1.2,1.2&#10;&#9;&#9;&#9;C1064,228.3,1063.4,228.9,1062.7,228.9z" style="fill: rgb(255, 255, 255);" transform="matrix(1, 0, 0, 1, 0, 0)"/><path class="st1" d="M437.4,221.5h-19.5c-0.7,0-1.2-0.6-1.2-1.2c0-0.7,0.6-1.2,1.2-1.2h19.5c0.7,0,1.2,0.6,1.2,1.2&#10;&#9;&#9;&#9;C438.7,220.9,438.1,221.5,437.4,221.5z" style="fill: rgb(255, 255, 255);" transform="matrix(1, 0, 0, 1, 0, 0)"/><path class="st1" d="M465.7,743.2h-19.5c-0.7,0-1.2-0.6-1.2-1.2c0-0.7,0.6-1.2,1.2-1.2h19.5c0.7,0,1.2,0.6,1.2,1.2&#10;&#9;&#9;&#9;C466.9,742.7,466.4,743.2,465.7,743.2z" style="fill: rgb(255, 255, 255);" transform="matrix(1, 0, 0, 1, 0, 0)"/><path class="st1" d="M1069.4,785.3h-19.5c-0.7,0-1.2-0.6-1.2-1.2c0-0.7,0.6-1.2,1.2-1.2h19.5c0.7,0,1.2,0.6,1.2,1.2&#10;&#9;&#9;&#9;C1070.7,784.8,1070.1,785.3,1069.4,785.3z" style="fill: rgb(255, 255, 255);" transform="matrix(1, 0, 0, 1, 0, 0)"/>
</svg>